<?xml version="1.0" ?><svg enable-background="new 0 0 24 24" id="Layer_1" version="1.1" viewBox="0 0 24 24" xml:space="preserve" xmlns="http://www.w3.org/2000/svg" xmlns:xlink="http://www.w3.org/1999/xlink"><g><g><path d="    M18.5421143,17.425354C19.7642822,15.9532471,20.5,14.0628052,20.5,12c0-4.1000977-2.9033203-7.5210571-6.7659302-8.3218994" fill="none" stroke="#303C42" stroke-linecap="round" stroke-linejoin="round" stroke-miterlimit="10"/><path d="    M7.8741455,19.4290161C9.0964355,20.109375,10.5018921,20.5,12,20.5c2.0166016,0,3.8665771-0.7056274,5.3239136-1.8789673" fill="none" stroke="#303C42" stroke-linecap="round" stroke-linejoin="round" stroke-miterlimit="10"/><path d="    M10.2155151,3.69104C6.37854,4.5113525,3.5,7.9180908,3.5,12c0,2.0272217,0.7121582,3.8866577,1.8966064,5.3474731" fill="none" stroke="#303C42" stroke-linecap="round" stroke-linejoin="round" stroke-miterlimit="10"/></g><path d="M13.5,14.5   c2,0,6,8,6,8C17.5,9,12,0.5,12,0.5c-7,11.5-7.5,23-7.5,23S11.5,14.5,13.5,14.5z" fill="none" stroke="#303C42" stroke-linecap="round" stroke-linejoin="round" stroke-miterlimit="10"/></g><g/><g/><g/><g/><g/><g/><g/><g/><g/><g/><g/><g/><g/><g/><g/></svg>